<?xml version="1.0" encoding="UTF-8" standalone="no"?><!DOCTYPE svg PUBLIC "-//W3C//DTD SVG 1.1//EN" "http://www.w3.org/Graphics/SVG/1.1/DTD/svg11.dtd"><!-- Generated by graphviz version 2.40.1 (20161225.0304)
 --><!-- Title: G Pages: 1 --><svg xmlns="http://www.w3.org/2000/svg" xmlns:xlink="http://www.w3.org/1999/xlink" width="1599pt" height="432pt" viewBox="0.00 0.00 1598.54 432.00">
<g id="graph0" class="graph" transform="scale(1 1) rotate(0) translate(4 428)">
<title>G</title>
<polygon fill="#ffffff" stroke="transparent" points="-4,4 -4,-428 1594.5368,-428 1594.5368,4 -4,4"/>
<!-- HEAT -->
<g id="node1" class="node">
<title>HEAT</title>
<ellipse fill="none" stroke="#000000" cx="528" cy="-406" rx="27" ry="18"/>
<text text-anchor="middle" x="528" y="-401.8" font-family="Times,serif" font-size="14.00" fill="#000000">P2</text>
</g>
<!-- REDUCE2 -->
<g id="node4" class="node">
<title>REDUCE2</title>
<ellipse fill="none" stroke="#000000" cx="816" cy="-284.4" rx="54.4739" ry="18"/>
<text text-anchor="middle" x="816" y="-280.2" font-family="Times,serif" font-size="14.00" fill="#000000">REDUCE2</text>
</g>
<!-- HEAT&#45;&gt;REDUCE2 -->
<g id="edge1" class="edge">
<title>HEAT-&gt;REDUCE2</title>
<path fill="none" stroke="#0000ff" stroke-width="2" d="M522.1043,-388.3833C516.8709,-369.0668 512.389,-338.426 529.2346,-320.4 545.8872,-302.5805 723.964,-306.5367 748,-302.4 753.7054,-301.4181 759.6297,-300.1826 765.496,-298.8211"/>
<polygon fill="#0000ff" stroke="#0000ff" stroke-width="2" points="766.382,-302.2076 775.265,-296.4333 764.72,-295.4078 766.382,-302.2076"/>
<text text-anchor="middle" x="565.8827" y="-341" font-family="Times,serif" font-size="14.00" fill="#000000">T &gt;= tTarget</text>
</g>
<!-- COOLOFF -->
<g id="node2" class="node">
<title>COOLOFF</title>
<ellipse fill="none" stroke="#000000" cx="530" cy="-195.6" rx="27" ry="18"/>
<text text-anchor="middle" x="530" y="-191.4" font-family="Times,serif" font-size="14.00" fill="#000000">P1</text>
</g>
<!-- COOLOFF&#45;&gt;HEAT -->
<g id="edge11" class="edge">
<title>COOLOFF-&gt;HEAT</title>
<path fill="none" stroke="#ffa500" d="M504.6992,-202.5978C446.6589,-218.7665 308.4279,-257.9804 302.228,-266.4 247.8137,-340.2964 414.6627,-383.6984 491.4733,-399.3342"/>
<polygon fill="#ffa500" stroke="#ffa500" points="491.1921,-402.8464 501.6816,-401.3564 492.5524,-395.9798 491.1921,-402.8464"/>
<text text-anchor="middle" x="405.886" y="-280.2" font-family="Times,serif" font-size="14.00" fill="#000000">A. SUDDEN HEAT and T &lt; tTarget</text>
</g>
<!-- COOLOFF&#45;&gt;HEAT -->
<g id="edge12" class="edge">
<title>COOLOFF-&gt;HEAT</title>
<path fill="none" stroke="#00ff00" d="M525.1713,-213.3269C517.2478,-245.0173 503.3763,-313.3706 514,-370 514.575,-373.0648 515.403,-376.204 516.3731,-379.2894"/>
<polygon fill="#00ff00" stroke="#00ff00" points="513.1237,-380.5957 519.8207,-388.8055 519.7051,-378.2113 513.1237,-380.5957"/>
<text text-anchor="middle" x="621.778" y="-280.2" font-family="Times,serif" font-size="14.00" fill="#000000">B. need HEAT and T &lt; tTarget - hist0</text>
</g>
<!-- REDUCE1 -->
<g id="node5" class="node">
<title>REDUCE1</title>
<ellipse fill="none" stroke="#000000" cx="658" cy="-106.8" rx="54.4739" ry="18"/>
<text text-anchor="middle" x="658" y="-102.6" font-family="Times,serif" font-size="14.00" fill="#000000">REDUCE1</text>
</g>
<!-- COOLOFF&#45;&gt;REDUCE1 -->
<g id="edge5" class="edge">
<title>COOLOFF-&gt;REDUCE1</title>
<path fill="none" stroke="#0000ff" stroke-width="2" d="M504.4187,-189.3364C479.311,-182.6098 443.6418,-171.3019 435.5798,-159.6 431.3437,-153.4513 430.7402,-148.4859 435.5798,-142.8 440.8519,-136.606 533.189,-123.2608 597.2141,-114.6737"/>
<polygon fill="#0000ff" stroke="#0000ff" stroke-width="2" points="597.7794,-118.1294 607.229,-113.3382 596.8541,-111.1908 597.7794,-118.1294"/>
<text text-anchor="middle" x="504.2101" y="-147" font-family="Times,serif" font-size="14.00" fill="#000000">E. T &gt;= tTarget + tDelta</text>
</g>
<!-- COOLOFF&#45;&gt;REDUCE1 -->
<g id="edge6" class="edge">
<title>COOLOFF-&gt;REDUCE1</title>
<path fill="none" stroke="#0000ff" stroke-width="2" d="M546.684,-181.4053C562.4428,-168.0982 585.0362,-149.3059 594.5284,-142.8 602.4325,-137.3826 611.2071,-132.0236 619.6476,-127.1615"/>
<polygon fill="#0000ff" stroke="#0000ff" stroke-width="2" points="621.628,-130.0629 628.6183,-122.1014 618.1888,-123.966 621.628,-130.0629"/>
<text text-anchor="middle" x="681.2358" y="-147" font-family="Times,serif" font-size="14.00" fill="#000000">F. T &gt;= tTarget and not NEED</text>
</g>
<!-- MAINTAIN -->
<g id="node3" class="node">
<title>MAINTAIN</title>
<ellipse fill="none" stroke="#000000" cx="277" cy="-18" rx="27" ry="18"/>
<text text-anchor="middle" x="277" y="-13.8" font-family="Times,serif" font-size="14.00" fill="#000000">P0</text>
</g>
<!-- MAINTAIN&#45;&gt;HEAT -->
<g id="edge13" class="edge">
<title>MAINTAIN-&gt;HEAT</title>
<path fill="none" stroke="#ffa500" stroke-width="2" d="M250.1884,-20.7987C180.672,-28.7938 0,-54.5946 0,-106.8 0,-284.4 0,-284.4 0,-284.4 0,-385.1838 369.9374,-402.4448 490.5061,-405.3941"/>
<polygon fill="#ffa500" stroke="#ffa500" stroke-width="2" points="490.6481,-408.8981 500.7243,-405.6239 490.8055,-401.8998 490.6481,-408.8981"/>
<text text-anchor="middle" x="102.886" y="-191.4" font-family="Times,serif" font-size="14.00" fill="#000000">A. SUDDEN HEAT and T &lt; tTarget</text>
</g>
<!-- MAINTAIN&#45;&gt;HEAT -->
<g id="edge14" class="edge">
<title>MAINTAIN-&gt;HEAT</title>
<path fill="none" stroke="#00ff00" stroke-width="2" d="M266.1176,-34.5881C255.8433,-51.8766 242,-80.1208 242,-106.8 242,-284.4 242,-284.4 242,-284.4 242,-330.1073 260.5099,-345.3491 299,-370 330.0426,-389.8812 433.9239,-399.7434 490.5009,-403.745"/>
<polygon fill="#00ff00" stroke="#00ff00" stroke-width="2" points="490.6038,-407.26 500.8183,-404.4468 491.0789,-400.2761 490.6038,-407.26"/>
<text text-anchor="middle" x="348.778" y="-191.4" font-family="Times,serif" font-size="14.00" fill="#000000">B. need HEAT and T &lt; tTarget - hist0</text>
</g>
<!-- MAINTAIN&#45;&gt;COOLOFF -->
<g id="edge15" class="edge">
<title>MAINTAIN-&gt;COOLOFF</title>
<path fill="none" stroke="#ff0000" d="M289.9628,-33.9539C314.302,-62.9321 369.7532,-124.4582 429,-159.6 449.408,-171.7049 474.5327,-180.6804 494.6176,-186.6418"/>
<polygon fill="#ff0000" stroke="#ff0000" points="493.7427,-190.0318 504.319,-189.4059 495.6607,-183.2997 493.7427,-190.0318"/>
<text text-anchor="middle" x="483.5087" y="-102.6" font-family="Times,serif" font-size="14.00" fill="#000000">C. not NEED and T &lt; tTarget - hist0</text>
</g>
<!-- REDUCE2&#45;&gt;HEAT -->
<g id="edge3" class="edge">
<title>REDUCE2-&gt;HEAT</title>
<path fill="none" stroke="#ffa500" d="M774.4622,-296.2009C765.7625,-298.4453 756.6147,-300.6394 748,-302.4 693.5373,-313.5305 668.861,-287.2644 624.228,-320.4 604.6833,-334.91 618.0378,-352.6148 601,-370 590.335,-380.8824 575.7032,-388.9843 562.3383,-394.7172"/>
<polygon fill="#ffa500" stroke="#ffa500" points="560.8975,-391.5237 552.9053,-398.4789 563.4905,-398.0257 560.8975,-391.5237"/>
<text text-anchor="middle" x="727.886" y="-341" font-family="Times,serif" font-size="14.00" fill="#000000">A. SUDDEN HEAT and T &lt; tTarget</text>
</g>
<!-- REDUCE2&#45;&gt;HEAT -->
<g id="edge4" class="edge">
<title>REDUCE2-&gt;HEAT</title>
<path fill="none" stroke="#00ff00" d="M826.3028,-302.1159C835.9122,-321.2308 846.4967,-351.42 830,-370 812.6729,-389.5153 641.995,-400.3589 565.1567,-404.2856"/>
<polygon fill="#00ff00" stroke="#00ff00" points="564.7763,-400.8001 554.963,-404.794 565.125,-407.7914 564.7763,-400.8001"/>
<text text-anchor="middle" x="945.778" y="-341" font-family="Times,serif" font-size="14.00" fill="#000000">B. need HEAT and T &lt; tTarget - hist0</text>
</g>
<!-- REDUCE2&#45;&gt;COOLOFF -->
<g id="edge2" class="edge">
<title>REDUCE2-&gt;COOLOFF</title>
<path fill="none" stroke="#0000ff" stroke-width="2" d="M776.2329,-272.0527C719.8534,-254.5475 617.6321,-222.8089 564.3652,-206.27"/>
<polygon fill="#0000ff" stroke="#0000ff" stroke-width="2" points="565.2897,-202.8923 554.7015,-203.2696 563.2139,-209.5775 565.2897,-202.8923"/>
<text text-anchor="middle" x="725.6245" y="-235.8" font-family="Times,serif" font-size="14.00" fill="#000000">cycle end</text>
</g>
<!-- REDUCE1&#45;&gt;HEAT -->
<g id="edge8" class="edge">
<title>REDUCE1-&gt;HEAT</title>
<path fill="none" stroke="#ffa500" d="M711.9973,-109.8305C798.5576,-115.1263 960.8491,-127.0214 982,-142.8 1101.3375,-231.8259 1115.6373,-307.2366 1057,-370 1040.2224,-387.9581 683.2211,-401.0095 565.3756,-404.8415"/>
<polygon fill="#ffa500" stroke="#ffa500" points="564.938,-401.3537 555.0556,-405.1733 565.163,-408.3501 564.938,-401.3537"/>
<text text-anchor="middle" x="1181.886" y="-235.8" font-family="Times,serif" font-size="14.00" fill="#000000">A. SUDDEN HEAT and T &lt; tTarget</text>
</g>
<!-- REDUCE1&#45;&gt;HEAT -->
<g id="edge9" class="edge">
<title>REDUCE1-&gt;HEAT</title>
<path fill="none" stroke="#00ff00" d="M712.3282,-108.7309C875.4965,-115.6972 1346.5066,-144.8907 1288,-248.4 1236.4367,-339.6254 1186.0112,-338.7173 1086,-370 1036.5853,-385.4565 682.0073,-400.1529 565.2049,-404.6217"/>
<polygon fill="#00ff00" stroke="#00ff00" points="564.8374,-401.1331 554.9774,-405.0101 565.103,-408.128 564.8374,-401.1331"/>
<text text-anchor="middle" x="1399.778" y="-235.8" font-family="Times,serif" font-size="14.00" fill="#000000">B. need HEAT and T &lt; tTarget - hist0</text>
</g>
<!-- REDUCE1&#45;&gt;COOLOFF -->
<g id="edge10" class="edge">
<title>REDUCE1-&gt;COOLOFF</title>
<path fill="none" stroke="#ff0000" d="M708.0402,-113.9352C745.7785,-121.3857 787.7653,-135.4423 767,-159.6 754.151,-174.5482 630.5206,-187.0878 567.1138,-192.5971"/>
<polygon fill="#ff0000" stroke="#ff0000" points="566.7795,-189.1128 557.1136,-193.451 567.3752,-196.0874 566.7795,-189.1128"/>
<text text-anchor="middle" x="875.5087" y="-147" font-family="Times,serif" font-size="14.00" fill="#000000">C. not NEED and T &lt; tTarget - hist0</text>
</g>
<!-- REDUCE1&#45;&gt;MAINTAIN -->
<g id="edge7" class="edge">
<title>REDUCE1-&gt;MAINTAIN</title>
<path fill="none" stroke="#0000ff" stroke-width="2" d="M613.1741,-96.3524C536.6491,-78.5166 382.3313,-42.5497 312.6185,-26.3016"/>
<polygon fill="#0000ff" stroke="#0000ff" stroke-width="2" points="313.1067,-22.8217 302.5733,-23.9604 311.5178,-29.639 313.1067,-22.8217"/>
<text text-anchor="middle" x="528.6245" y="-58.2" font-family="Times,serif" font-size="14.00" fill="#000000">cycle end</text>
</g>
<!-- OK -->
<g id="node6" class="node">
<title>OK</title>
<ellipse fill="none" stroke="#000000" cx="1445" cy="-406" rx="27" ry="18"/>
<text text-anchor="middle" x="1445" y="-401.8" font-family="Times,serif" font-size="14.00" fill="#000000">OK</text>
</g>
<!-- HEAT_CWU -->
<g id="node7" class="node">
<title>HEAT_CWU</title>
<ellipse fill="none" stroke="#000000" cx="1460" cy="-284.4" rx="64.2669" ry="18"/>
<text text-anchor="middle" x="1460" y="-280.2" font-family="Times,serif" font-size="14.00" fill="#000000">HEAT_CWU</text>
</g>
<!-- OK&#45;&gt;HEAT_CWU -->
<g id="edge16" class="edge">
<title>OK-&gt;HEAT_CWU</title>
<path fill="none" stroke="#000000" d="M1419.0518,-400.3159C1402.8421,-395.2793 1383.2197,-386.1271 1373.2694,-370 1361.694,-351.2392 1361.0289,-338.7338 1373.2694,-320.4 1379.4378,-311.161 1388.4672,-304.2898 1398.3976,-299.1804"/>
<polygon fill="#000000" stroke="#000000" points="1400.0456,-302.2765 1407.7143,-294.9662 1397.1606,-295.8986 1400.0456,-302.2765"/>
<text text-anchor="end" x="1496.7306" y="-357.4" font-family="Times,serif" font-size="14.00" fill="#000000">Tcwu &lt; Zcwu - Hcwu</text>
<text text-anchor="middle" x="1434.8653" y="-324.6" font-family="Times,serif" font-size="14.00" fill="#000000">Set Tz for CWU</text>
</g>
<!-- HEAT_CWU&#45;&gt;OK -->
<g id="edge17" class="edge">
<title>HEAT_CWU-&gt;OK</title>
<path fill="none" stroke="#000000" d="M1483.3121,-301.5478C1488.8423,-306.9068 1494.0017,-313.2994 1497,-320.4 1505.5753,-340.7082 1507.231,-350.4735 1497,-370 1492.4718,-378.6424 1484.822,-385.6226 1476.7632,-391.0531"/>
<polygon fill="#000000" stroke="#000000" points="1474.7444,-388.1833 1467.9865,-396.343 1478.3579,-394.1785 1474.7444,-388.1833"/>
<text text-anchor="end" x="1590.5368" y="-357.4" font-family="Times,serif" font-size="14.00" fill="#000000">Tcwu &gt;= Zcwu</text>
<text text-anchor="middle" x="1547.2684" y="-324.6" font-family="Times,serif" font-size="14.00" fill="#000000">Set Tz for CO</text>
</g>
</g>
</svg>