<?xml version="1.0" encoding="UTF-8" standalone="no"?><!DOCTYPE svg PUBLIC "-//W3C//DTD SVG 1.1//EN" "http://www.w3.org/Graphics/SVG/1.1/DTD/svg11.dtd"><!-- Generated by graphviz version 2.40.1 (20161225.0304)
 --><!-- Title: G Pages: 1 --><svg xmlns="http://www.w3.org/2000/svg" xmlns:xlink="http://www.w3.org/1999/xlink" width="1339pt" height="432pt" viewBox="0.00 0.00 1338.59 432.00">
<g id="graph0" class="graph" transform="scale(1 1) rotate(0) translate(4 428)">
<title>G</title>
<polygon fill="#ffffff" stroke="transparent" points="-4,4 -4,-428 1334.5877,-428 1334.5877,4 -4,4"/>
<!-- HEAT -->
<g id="node1" class="node">
<title>HEAT</title>
<ellipse fill="none" stroke="#000000" cx="500.0509" cy="-406" rx="27" ry="18"/>
<text text-anchor="middle" x="500.0509" y="-401.8" font-family="Times,serif" font-size="14.00" fill="#000000">P2</text>
</g>
<!-- REDUCE2 -->
<g id="node4" class="node">
<title>REDUCE2</title>
<ellipse fill="none" stroke="#000000" cx="366.0509" cy="-284.4" rx="54.4739" ry="18"/>
<text text-anchor="middle" x="366.0509" y="-280.2" font-family="Times,serif" font-size="14.00" fill="#000000">REDUCE2</text>
</g>
<!-- HEAT&#45;&gt;REDUCE2 -->
<g id="edge1" class="edge">
<title>HEAT-&gt;REDUCE2</title>
<path fill="none" stroke="#0000ff" stroke-width="2" d="M500.2555,-387.8762C499.4834,-368.694 495.3082,-338.7147 478.0509,-320.4 469.8029,-311.6466 445.4393,-303.3279 421.5338,-296.8966"/>
<polygon fill="#0000ff" stroke="#0000ff" stroke-width="2" points="422.281,-293.4746 411.7223,-294.3496 420.5221,-300.25 422.281,-293.4746"/>
<text text-anchor="middle" x="534.9336" y="-341" font-family="Times,serif" font-size="14.00" fill="#000000">T &gt;= tTarget</text>
</g>
<!-- COOLOFF -->
<g id="node2" class="node">
<title>COOLOFF</title>
<ellipse fill="none" stroke="#000000" cx="130.0509" cy="-195.6" rx="27" ry="18"/>
<text text-anchor="middle" x="130.0509" y="-191.4" font-family="Times,serif" font-size="14.00" fill="#000000">P1</text>
</g>
<!-- COOLOFF&#45;&gt;HEAT -->
<g id="edge10" class="edge">
<title>COOLOFF-&gt;HEAT</title>
<path fill="none" stroke="#ffa500" d="M119.776,-212.3178C111.8698,-226.2186 101.5901,-246.8231 97.2789,-266.4 87.2152,-312.0992 80.1615,-339.9725 116.0509,-370 142.2942,-391.9569 371.4459,-401.8018 462.7447,-404.8782"/>
<polygon fill="#ffa500" stroke="#ffa500" points="462.8104,-408.3822 472.9199,-405.2121 463.0401,-401.3859 462.8104,-408.3822"/>
<text text-anchor="middle" x="200.9369" y="-280.2" font-family="Times,serif" font-size="14.00" fill="#000000">A. SUDDEN HEAT and T &lt; tTarget</text>
</g>
<!-- REDUCE1 -->
<g id="node5" class="node">
<title>REDUCE1</title>
<ellipse fill="none" stroke="#000000" cx="367.0509" cy="-106.8" rx="54.4739" ry="18"/>
<text text-anchor="middle" x="367.0509" y="-102.6" font-family="Times,serif" font-size="14.00" fill="#000000">REDUCE1</text>
</g>
<!-- COOLOFF&#45;&gt;REDUCE1 -->
<g id="edge5" class="edge">
<title>COOLOFF-&gt;REDUCE1</title>
<path fill="none" stroke="#0000ff" stroke-width="2" d="M103.1743,-192.8724C60.7543,-187.5748 -14.1887,-173.5971 13.6307,-142.8 13.7822,-142.6323 203.4196,-123.3864 304.8076,-113.1076"/>
<polygon fill="#0000ff" stroke="#0000ff" stroke-width="2" points="305.3341,-116.5722 314.9301,-112.0814 304.6281,-109.6079 305.3341,-116.5722"/>
<text text-anchor="middle" x="82.261" y="-147" font-family="Times,serif" font-size="14.00" fill="#000000">E. T &gt;= tTarget + tDelta</text>
</g>
<!-- COOLOFF&#45;&gt;REDUCE1 -->
<g id="edge6" class="edge">
<title>COOLOFF-&gt;REDUCE1</title>
<path fill="none" stroke="#0000ff" stroke-width="2" d="M139.3011,-178.6082C146.7104,-166.6718 158.2255,-151.363 172.5793,-142.8 194.534,-129.7026 256.7459,-119.6617 304.9538,-113.5529"/>
<polygon fill="#0000ff" stroke="#0000ff" stroke-width="2" points="305.514,-117.0103 315.0088,-112.3093 304.6547,-110.0633 305.514,-117.0103"/>
<text text-anchor="middle" x="259.2867" y="-147" font-family="Times,serif" font-size="14.00" fill="#000000">F. T &gt;= tTarget and not NEED</text>
</g>
<!-- MAINTAIN -->
<g id="node3" class="node">
<title>MAINTAIN</title>
<ellipse fill="none" stroke="#000000" cx="697.0509" cy="-18" rx="27" ry="18"/>
<text text-anchor="middle" x="697.0509" y="-13.8" font-family="Times,serif" font-size="14.00" fill="#000000">P0</text>
</g>
<!-- MAINTAIN&#45;&gt;HEAT -->
<g id="edge11" class="edge">
<title>MAINTAIN-&gt;HEAT</title>
<path fill="none" stroke="#ffa500" stroke-width="2" d="M721.6854,-25.4735C754.3869,-37.1001 808.0509,-62.8719 808.0509,-106.8 808.0509,-284.4 808.0509,-284.4 808.0509,-284.4 808.0509,-342.1695 618.2223,-384.1787 536.6206,-399.5685"/>
<polygon fill="#ffa500" stroke="#ffa500" stroke-width="2" points="535.5055,-396.2155 526.3108,-401.4794 536.7812,-403.0982 535.5055,-396.2155"/>
<text text-anchor="middle" x="910.9369" y="-191.4" font-family="Times,serif" font-size="14.00" fill="#000000">A. SUDDEN HEAT and T &lt; tTarget</text>
</g>
<!-- MAINTAIN&#45;&gt;HEAT -->
<g id="edge12" class="edge">
<title>MAINTAIN-&gt;HEAT</title>
<path fill="none" stroke="#ffa500" stroke-width="2" d="M724.1641,-19.0045C806.8234,-22.7958 1050.0509,-39.6563 1050.0509,-106.8 1050.0509,-284.4 1050.0509,-284.4 1050.0509,-284.4 1050.0509,-337.0781 660.4174,-387.2245 537.0436,-401.7824"/>
<polygon fill="#ffa500" stroke="#ffa500" stroke-width="2" points="536.4761,-398.3249 526.9509,-402.9638 537.29,-405.2774 536.4761,-398.3249"/>
<text text-anchor="middle" x="1156.8289" y="-191.4" font-family="Times,serif" font-size="14.00" fill="#000000">B. need HEAT and T &lt; tTarget - hist0</text>
</g>
<!-- MAINTAIN&#45;&gt;COOLOFF -->
<g id="edge13" class="edge">
<title>MAINTAIN-&gt;COOLOFF</title>
<path fill="none" stroke="#ff0000" d="M670.0013,-19.7703C568.1175,-26.6589 207.7949,-53.0714 99.0335,-88.8 52.8992,-103.9554 28.4704,-100.8268 4.0509,-142.8 -16.6527,-178.3862 48.6512,-189.9889 92.8446,-193.7712"/>
<polygon fill="#ff0000" stroke="#ff0000" points="92.7761,-197.2759 103.0111,-194.5385 93.3029,-190.2958 92.7761,-197.2759"/>
<text text-anchor="middle" x="201.5596" y="-102.6" font-family="Times,serif" font-size="14.00" fill="#000000">C. not NEED and T &lt; tTarget - hist0</text>
</g>
<!-- REDUCE2&#45;&gt;HEAT -->
<g id="edge3" class="edge">
<title>REDUCE2-&gt;HEAT</title>
<path fill="none" stroke="#ffa500" d="M324.9243,-296.3591C316.1133,-298.6191 306.8172,-300.7792 298.0509,-302.4 261.1792,-309.2172 155.3389,-292.5075 130.2789,-320.4 115.546,-336.7981 115.4656,-353.6745 130.2789,-370 152.327,-394.2989 372.9357,-402.7141 462.5287,-405.1442"/>
<polygon fill="#ffa500" stroke="#ffa500" points="462.6952,-408.6497 472.783,-405.4116 462.8777,-401.652 462.6952,-408.6497"/>
<text text-anchor="middle" x="233.9369" y="-341" font-family="Times,serif" font-size="14.00" fill="#000000">A. SUDDEN HEAT and T &lt; tTarget</text>
</g>
<!-- REDUCE2&#45;&gt;HEAT -->
<g id="edge4" class="edge">
<title>REDUCE2-&gt;HEAT</title>
<path fill="none" stroke="#00ff00" d="M356.7641,-302.4655C348.5204,-321.3181 339.9079,-350.7605 354.9571,-370 368.1117,-386.8173 424.2903,-396.8879 462.7562,-401.9374"/>
<polygon fill="#00ff00" stroke="#00ff00" points="462.7282,-405.4611 473.0854,-403.2299 463.5974,-398.5153 462.7282,-405.4611"/>
<text text-anchor="middle" x="414.5978" y="-341" font-family="Times,serif" font-size="14.00" fill="#000000">B. T &lt; tTarget - hist0</text>
</g>
<!-- REDUCE2&#45;&gt;COOLOFF -->
<g id="edge2" class="edge">
<title>REDUCE2-&gt;COOLOFF</title>
<path fill="none" stroke="#0000ff" stroke-width="2" d="M329.9507,-270.8165C284.4542,-253.6975 206.9052,-224.518 162.967,-207.9854"/>
<polygon fill="#0000ff" stroke="#0000ff" stroke-width="2" points="164.195,-204.7079 153.603,-204.462 161.7298,-211.2595 164.195,-204.7079"/>
<text text-anchor="middle" x="296.6754" y="-235.8" font-family="Times,serif" font-size="14.00" fill="#000000">cycle end</text>
</g>
<!-- REDUCE1&#45;&gt;HEAT -->
<g id="edge8" class="edge">
<title>REDUCE1-&gt;HEAT</title>
<path fill="none" stroke="#ffa500" d="M421.559,-109.1201C474.1549,-112.6206 548.4688,-121.3221 567.0509,-142.8 589.3916,-168.6222 579.8968,-358.9908 573.0509,-370 564.7447,-383.3575 549.8602,-391.9053 535.6884,-397.3005"/>
<polygon fill="#ffa500" stroke="#ffa500" points="534.4307,-394.0311 526.0807,-400.5524 536.675,-400.6616 534.4307,-394.0311"/>
<text text-anchor="middle" x="683.9369" y="-235.8" font-family="Times,serif" font-size="14.00" fill="#000000">A. SUDDEN HEAT and T &lt; tTarget</text>
</g>
<!-- REDUCE1&#45;&gt;COOLOFF -->
<g id="edge9" class="edge">
<title>REDUCE1-&gt;COOLOFF</title>
<path fill="none" stroke="#ff0000" d="M364.1166,-124.937C361.258,-136.6146 355.7066,-151.1414 345.0509,-159.6 318.1646,-180.9426 221.4225,-190.1147 167.3275,-193.6478"/>
<polygon fill="#ff0000" stroke="#ff0000" points="166.8747,-190.1691 157.1104,-194.2812 167.3079,-197.1557 166.8747,-190.1691"/>
<text text-anchor="middle" x="460.5596" y="-147" font-family="Times,serif" font-size="14.00" fill="#000000">C. not NEED and T &lt; tTarget - hist0</text>
</g>
<!-- REDUCE1&#45;&gt;MAINTAIN -->
<g id="edge7" class="edge">
<title>REDUCE1-&gt;MAINTAIN</title>
<path fill="none" stroke="#0000ff" stroke-width="2" d="M409.5171,-95.3727C475.3402,-77.6603 600.7658,-43.9094 661.8568,-27.4704"/>
<polygon fill="#0000ff" stroke="#0000ff" stroke-width="2" points="663.0425,-30.7759 671.7895,-24.7976 661.2235,-24.0164 663.0425,-30.7759"/>
<text text-anchor="middle" x="588.6754" y="-58.2" font-family="Times,serif" font-size="14.00" fill="#000000">cycle end</text>
</g>
<!-- OK -->
<g id="node6" class="node">
<title>OK</title>
<ellipse fill="none" stroke="#000000" cx="1185.0509" cy="-406" rx="27" ry="18"/>
<text text-anchor="middle" x="1185.0509" y="-401.8" font-family="Times,serif" font-size="14.00" fill="#000000">OK</text>
</g>
<!-- HEAT_CWU -->
<g id="node7" class="node">
<title>HEAT_CWU</title>
<ellipse fill="none" stroke="#000000" cx="1200.0509" cy="-284.4" rx="64.2669" ry="18"/>
<text text-anchor="middle" x="1200.0509" y="-280.2" font-family="Times,serif" font-size="14.00" fill="#000000">HEAT_CWU</text>
</g>
<!-- OK&#45;&gt;HEAT_CWU -->
<g id="edge14" class="edge">
<title>OK-&gt;HEAT_CWU</title>
<path fill="none" stroke="#000000" d="M1159.1027,-400.3159C1142.893,-395.2793 1123.2707,-386.1271 1113.3203,-370 1101.7449,-351.2392 1101.0798,-338.7338 1113.3203,-320.4 1119.4887,-311.161 1128.5181,-304.2898 1138.4485,-299.1804"/>
<polygon fill="#000000" stroke="#000000" points="1140.0965,-302.2765 1147.7652,-294.9662 1137.2115,-295.8986 1140.0965,-302.2765"/>
<text text-anchor="end" x="1237.7815" y="-357.4" font-family="Times,serif" font-size="14.00" fill="#000000">Tcwu &lt; Zcwu - Hcwu</text>
<text text-anchor="middle" x="1175.9162" y="-324.6" font-family="Times,serif" font-size="14.00" fill="#000000">Set Tz for CWU</text>
</g>
<!-- HEAT_CWU&#45;&gt;OK -->
<g id="edge15" class="edge">
<title>HEAT_CWU-&gt;OK</title>
<path fill="none" stroke="#000000" d="M1223.363,-301.5478C1228.8932,-306.9068 1234.0526,-313.2994 1237.0509,-320.4 1245.6262,-340.7082 1247.2819,-350.4735 1237.0509,-370 1232.5227,-378.6424 1224.8729,-385.6226 1216.8141,-391.0531"/>
<polygon fill="#000000" stroke="#000000" points="1214.7953,-388.1833 1208.0374,-396.343 1218.4088,-394.1785 1214.7953,-388.1833"/>
<text text-anchor="end" x="1330.5877" y="-357.4" font-family="Times,serif" font-size="14.00" fill="#000000">Tcwu &gt;= Zcwu</text>
<text text-anchor="middle" x="1287.3193" y="-324.6" font-family="Times,serif" font-size="14.00" fill="#000000">Set Tz for CO</text>
</g>
</g>
</svg>