<?xml version="1.0" encoding="UTF-8" standalone="no"?><!DOCTYPE svg PUBLIC "-//W3C//DTD SVG 1.1//EN" "http://www.w3.org/Graphics/SVG/1.1/DTD/svg11.dtd"><!-- Generated by graphviz version 2.40.1 (20161225.0304)
 --><!-- Title: G Pages: 1 --><svg xmlns="http://www.w3.org/2000/svg" xmlns:xlink="http://www.w3.org/1999/xlink" width="1329pt" height="432pt" viewBox="0.00 0.00 1328.54 432.00">
<g id="graph0" class="graph" transform="scale(1 1) rotate(0) translate(4 428)">
<title>G</title>
<polygon fill="#ffffff" stroke="transparent" points="-4,4 -4,-428 1324.5368,-428 1324.5368,4 -4,4"/>
<!-- HEAT -->
<g id="node1" class="node">
<title>HEAT</title>
<ellipse fill="none" stroke="#000000" cx="440" cy="-406" rx="27" ry="18"/>
<text text-anchor="middle" x="440" y="-401.8" font-family="Times,serif" font-size="14.00" fill="#000000">P2</text>
</g>
<!-- REDUCE2 -->
<g id="node4" class="node">
<title>REDUCE2</title>
<ellipse fill="none" stroke="#000000" cx="721" cy="-284.4" rx="54.4739" ry="18"/>
<text text-anchor="middle" x="721" y="-280.2" font-family="Times,serif" font-size="14.00" fill="#000000">REDUCE2</text>
</g>
<!-- HEAT&#45;&gt;REDUCE2 -->
<g id="edge1" class="edge">
<title>HEAT-&gt;REDUCE2</title>
<path fill="none" stroke="#0000ff" stroke-width="2" d="M434.1134,-388.3917C428.8881,-369.0828 424.4134,-338.4487 441.2346,-320.4 457.3347,-303.1251 629.7332,-306.4366 653,-302.4 658.7041,-301.4104 664.6275,-300.17 670.4933,-298.8057"/>
<polygon fill="#0000ff" stroke="#0000ff" stroke-width="2" points="671.3806,-302.192 680.2619,-296.4151 669.7165,-295.3926 671.3806,-302.192"/>
<text text-anchor="middle" x="477.8827" y="-341" font-family="Times,serif" font-size="14.00" fill="#000000">T &gt;= tTarget</text>
</g>
<!-- COOLOFF -->
<g id="node2" class="node">
<title>COOLOFF</title>
<ellipse fill="none" stroke="#000000" cx="522" cy="-195.6" rx="27" ry="18"/>
<text text-anchor="middle" x="522" y="-191.4" font-family="Times,serif" font-size="14.00" fill="#000000">P1</text>
</g>
<!-- COOLOFF&#45;&gt;HEAT -->
<g id="edge10" class="edge">
<title>COOLOFF-&gt;HEAT</title>
<path fill="none" stroke="#ffa500" d="M505.236,-209.8469C489.6642,-222.232 465.285,-239.5393 441,-248.4 410.1302,-259.6632 316.0037,-241.7906 294.228,-266.4 250.0885,-316.2834 351.8694,-369.0552 407.2072,-392.923"/>
<polygon fill="#ffa500" stroke="#ffa500" points="406.0571,-396.2365 416.6309,-396.9026 408.7803,-389.7879 406.0571,-396.2365"/>
<text text-anchor="middle" x="397.886" y="-280.2" font-family="Times,serif" font-size="14.00" fill="#000000">A. SUDDEN HEAT and T &lt; tTarget</text>
</g>
<!-- COOLOFF&#45;&gt;HEAT -->
<g id="edge11" class="edge">
<title>COOLOFF-&gt;HEAT</title>
<path fill="none" stroke="#00ff00" d="M523.6962,-213.7508C524.8397,-237.4076 523.0069,-278.5625 500,-302.4 476.494,-326.7546 446.9153,-293.7874 426,-320.4 412.9069,-337.0597 418.4367,-361.2666 426.0729,-379.6908"/>
<polygon fill="#00ff00" stroke="#00ff00" points="422.974,-381.3315 430.2983,-388.9869 429.3466,-378.4349 422.974,-381.3315"/>
<text text-anchor="middle" x="582.4942" y="-280.2" font-family="Times,serif" font-size="14.00" fill="#000000">B. T &lt;= tTarget - hist0</text>
</g>
<!-- REDUCE1 -->
<g id="node5" class="node">
<title>REDUCE1</title>
<ellipse fill="none" stroke="#000000" cx="558" cy="-106.8" rx="54.4739" ry="18"/>
<text text-anchor="middle" x="558" y="-102.6" font-family="Times,serif" font-size="14.00" fill="#000000">REDUCE1</text>
</g>
<!-- COOLOFF&#45;&gt;REDUCE1 -->
<g id="edge5" class="edge">
<title>COOLOFF-&gt;REDUCE1</title>
<path fill="none" stroke="#0000ff" stroke-width="2" d="M501.6079,-183.7822C486.476,-173.4306 469.9951,-157.7463 479.5798,-142.8 485.5236,-133.5313 494.5186,-126.6173 504.3229,-121.4699"/>
<polygon fill="#0000ff" stroke="#0000ff" stroke-width="2" points="505.888,-124.6023 513.49,-117.2226 502.9452,-118.2509 505.888,-124.6023"/>
<text text-anchor="middle" x="548.2101" y="-147" font-family="Times,serif" font-size="14.00" fill="#000000">E. T &gt;= tTarget + tDelta</text>
</g>
<!-- COOLOFF&#45;&gt;REDUCE1 -->
<g id="edge6" class="edge">
<title>COOLOFF-&gt;REDUCE1</title>
<path fill="none" stroke="#0000ff" stroke-width="2" d="M547.4691,-189.3204C572.4664,-182.5808 607.978,-171.2624 616,-159.6 624.5635,-147.1503 614.8049,-135.5728 600.9993,-126.4506"/>
<polygon fill="#0000ff" stroke="#0000ff" stroke-width="2" points="602.3918,-123.2065 592.008,-121.1022 598.8131,-129.2226 602.3918,-123.2065"/>
<text text-anchor="middle" x="706.2358" y="-147" font-family="Times,serif" font-size="14.00" fill="#000000">F. T &gt;= tTarget and not NEED</text>
</g>
<!-- MAINTAIN -->
<g id="node3" class="node">
<title>MAINTAIN</title>
<ellipse fill="none" stroke="#000000" cx="558" cy="-18" rx="27" ry="18"/>
<text text-anchor="middle" x="558" y="-13.8" font-family="Times,serif" font-size="14.00" fill="#000000">P0</text>
</g>
<!-- MAINTAIN&#45;&gt;HEAT -->
<g id="edge12" class="edge">
<title>MAINTAIN-&gt;HEAT</title>
<path fill="none" stroke="#ffa500" stroke-width="2" d="M530.7088,-19.4229C418.6793,-25.6203 0,-52.4191 0,-106.8 0,-284.4 0,-284.4 0,-284.4 0,-367.6295 296.1848,-396.1415 402.5415,-403.6968"/>
<polygon fill="#ffa500" stroke="#ffa500" stroke-width="2" points="402.5916,-407.2085 412.8081,-404.4025 403.0716,-400.2249 402.5916,-407.2085"/>
<text text-anchor="middle" x="102.886" y="-191.4" font-family="Times,serif" font-size="14.00" fill="#000000">A. SUDDEN HEAT and T &lt; tTarget</text>
</g>
<!-- MAINTAIN&#45;&gt;HEAT -->
<g id="edge13" class="edge">
<title>MAINTAIN-&gt;HEAT</title>
<path fill="none" stroke="#00ff00" stroke-width="2" d="M584.9472,-20.0811C686.4537,-28.2747 1040,-60.1607 1040,-106.8 1040,-284.4 1040,-284.4 1040,-284.4 1040,-356.5745 970.59,-347.5373 902,-370 823.3324,-395.7631 572.6058,-403.3692 477.2726,-405.3618"/>
<polygon fill="#00ff00" stroke="#00ff00" stroke-width="2" points="477.1515,-401.8634 467.2236,-405.5629 477.2917,-408.862 477.1515,-401.8634"/>
<text text-anchor="middle" x="1103.4942" y="-191.4" font-family="Times,serif" font-size="14.00" fill="#000000">B. T &lt;= tTarget - hist0</text>
</g>
<!-- REDUCE2&#45;&gt;HEAT -->
<g id="edge3" class="edge">
<title>REDUCE2-&gt;HEAT</title>
<path fill="none" stroke="#ffa500" d="M679.4504,-296.144C670.7516,-298.3926 661.6071,-300.6027 653,-302.4 601.5971,-313.1337 578.2568,-288.919 536.228,-320.4 516.7454,-334.9932 530.0378,-352.6148 513,-370 502.335,-380.8824 487.7032,-388.9843 474.3383,-394.7172"/>
<polygon fill="#ffa500" stroke="#ffa500" points="472.8975,-391.5237 464.9053,-398.4789 475.4905,-398.0257 472.8975,-391.5237"/>
<text text-anchor="middle" x="639.886" y="-341" font-family="Times,serif" font-size="14.00" fill="#000000">A. SUDDEN HEAT and T &lt; tTarget</text>
</g>
<!-- REDUCE2&#45;&gt;HEAT -->
<g id="edge4" class="edge">
<title>REDUCE2-&gt;HEAT</title>
<path fill="none" stroke="#00ff00" d="M733.4285,-302.0021C745.1937,-321.0175 758.7631,-351.1199 742,-370 724.6729,-389.5153 553.995,-400.3589 477.1567,-404.2856"/>
<polygon fill="#00ff00" stroke="#00ff00" points="476.7763,-400.8001 466.963,-404.794 477.125,-407.7914 476.7763,-400.8001"/>
<text text-anchor="middle" x="809.5469" y="-341" font-family="Times,serif" font-size="14.00" fill="#000000">B. T &lt; tTarget - hist0</text>
</g>
<!-- REDUCE2&#45;&gt;COOLOFF -->
<g id="edge2" class="edge">
<title>REDUCE2-&gt;COOLOFF</title>
<path fill="none" stroke="#0000ff" stroke-width="2" d="M688.1392,-269.7365C650.9482,-253.1407 590.7686,-226.2867 553.9556,-209.8596"/>
<polygon fill="#0000ff" stroke="#0000ff" stroke-width="2" points="555.2378,-206.5991 544.6794,-205.7203 552.3852,-212.9916 555.2378,-206.5991"/>
<text text-anchor="middle" x="666.6245" y="-235.8" font-family="Times,serif" font-size="14.00" fill="#000000">cycle end</text>
</g>
<!-- REDUCE1&#45;&gt;HEAT -->
<g id="edge8" class="edge">
<title>REDUCE1-&gt;HEAT</title>
<path fill="none" stroke="#ffa500" d="M513.4591,-117.2184C432.0039,-137.271 264.3326,-183.52 231.228,-231.6 193.1299,-286.9324 239.4671,-328.1259 292,-370 309.0111,-383.5596 365.2895,-394.5599 403.3344,-400.6898"/>
<polygon fill="#ffa500" stroke="#ffa500" points="403.1124,-404.1976 413.5337,-402.2876 404.1959,-397.282 403.1124,-404.1976"/>
<text text-anchor="middle" x="334.886" y="-235.8" font-family="Times,serif" font-size="14.00" fill="#000000">A. SUDDEN HEAT and T &lt; tTarget</text>
</g>
<!-- REDUCE1&#45;&gt;HEAT -->
<g id="edge9" class="edge">
<title>REDUCE1-&gt;HEAT</title>
<path fill="none" stroke="#00ff00" d="M612.3552,-109.001C673.5375,-112.4991 768.0568,-121.2957 796,-142.8 912.233,-232.2498 931.3362,-306.6124 873,-370 846.4472,-398.852 577.3886,-404.5849 477.2679,-405.7206"/>
<polygon fill="#00ff00" stroke="#00ff00" points="476.9793,-402.2233 467.0164,-405.8273 477.0523,-409.2229 476.9793,-402.2233"/>
<text text-anchor="middle" x="955.4942" y="-235.8" font-family="Times,serif" font-size="14.00" fill="#000000">B. T &lt;= tTarget - hist0</text>
</g>
<!-- REDUCE1&#45;&gt;MAINTAIN -->
<g id="edge7" class="edge">
<title>REDUCE1-&gt;MAINTAIN</title>
<path fill="none" stroke="#0000ff" stroke-width="2" d="M558,-88.4006C558,-76.2949 558,-60.2076 558,-46.4674"/>
<polygon fill="#0000ff" stroke="#0000ff" stroke-width="2" points="561.5001,-46.072 558,-36.072 554.5001,-46.0721 561.5001,-46.072"/>
<text text-anchor="middle" x="584.6245" y="-58.2" font-family="Times,serif" font-size="14.00" fill="#000000">cycle end</text>
</g>
<!-- OK -->
<g id="node6" class="node">
<title>OK</title>
<ellipse fill="none" stroke="#000000" cx="1175" cy="-406" rx="27" ry="18"/>
<text text-anchor="middle" x="1175" y="-401.8" font-family="Times,serif" font-size="14.00" fill="#000000">OK</text>
</g>
<!-- HEAT_CWU -->
<g id="node7" class="node">
<title>HEAT_CWU</title>
<ellipse fill="none" stroke="#000000" cx="1190" cy="-284.4" rx="64.2669" ry="18"/>
<text text-anchor="middle" x="1190" y="-280.2" font-family="Times,serif" font-size="14.00" fill="#000000">HEAT_CWU</text>
</g>
<!-- OK&#45;&gt;HEAT_CWU -->
<g id="edge14" class="edge">
<title>OK-&gt;HEAT_CWU</title>
<path fill="none" stroke="#000000" d="M1149.0518,-400.3159C1132.8421,-395.2793 1113.2197,-386.1271 1103.2694,-370 1091.694,-351.2392 1091.0289,-338.7338 1103.2694,-320.4 1109.4378,-311.161 1118.4672,-304.2898 1128.3976,-299.1804"/>
<polygon fill="#000000" stroke="#000000" points="1130.0456,-302.2765 1137.7143,-294.9662 1127.1606,-295.8986 1130.0456,-302.2765"/>
<text text-anchor="end" x="1226.7306" y="-357.4" font-family="Times,serif" font-size="14.00" fill="#000000">Tcwu &lt; Zcwu - Hcwu</text>
<text text-anchor="middle" x="1164.8653" y="-324.6" font-family="Times,serif" font-size="14.00" fill="#000000">Set Tz for CWU</text>
</g>
<!-- HEAT_CWU&#45;&gt;OK -->
<g id="edge15" class="edge">
<title>HEAT_CWU-&gt;OK</title>
<path fill="none" stroke="#000000" d="M1213.3121,-301.5478C1218.8423,-306.9068 1224.0017,-313.2994 1227,-320.4 1235.5753,-340.7082 1237.231,-350.4735 1227,-370 1222.4718,-378.6424 1214.822,-385.6226 1206.7632,-391.0531"/>
<polygon fill="#000000" stroke="#000000" points="1204.7444,-388.1833 1197.9865,-396.343 1208.3579,-394.1785 1204.7444,-388.1833"/>
<text text-anchor="end" x="1320.5368" y="-357.4" font-family="Times,serif" font-size="14.00" fill="#000000">Tcwu &gt;= Zcwu</text>
<text text-anchor="middle" x="1277.2684" y="-324.6" font-family="Times,serif" font-size="14.00" fill="#000000">Set Tz for CO</text>
</g>
</g>
</svg>