<?xml version="1.0" encoding="UTF-8" standalone="no"?><!DOCTYPE svg PUBLIC "-//W3C//DTD SVG 1.1//EN" "http://www.w3.org/Graphics/SVG/1.1/DTD/svg11.dtd"><!-- Generated by graphviz version 2.40.1 (20161225.0304)
 --><!-- Title: G Pages: 1 --><svg xmlns="http://www.w3.org/2000/svg" xmlns:xlink="http://www.w3.org/1999/xlink" width="1211pt" height="432pt" viewBox="0.00 0.00 1210.94 432.00">
<g id="graph0" class="graph" transform="scale(1 1) rotate(0) translate(4 428)">
<title>G</title>
<polygon fill="#ffffff" stroke="transparent" points="-4,4 -4,-428 1206.936,-428 1206.936,4 -4,4"/>
<!-- HEAT -->
<g id="node1" class="node">
<title>HEAT</title>
<ellipse fill="none" stroke="#000000" cx="400.3992" cy="-406" rx="27" ry="18"/>
<text text-anchor="middle" x="400.3992" y="-401.8" font-family="Times,serif" font-size="14.00" fill="#000000">P2</text>
</g>
<!-- REDUCE2 -->
<g id="node4" class="node">
<title>REDUCE2</title>
<ellipse fill="none" stroke="#000000" cx="134.3992" cy="-284.4" rx="54.4739" ry="18"/>
<text text-anchor="middle" x="134.3992" y="-280.2" font-family="Times,serif" font-size="14.00" fill="#000000">REDUCE2</text>
</g>
<!-- HEAT&#45;&gt;REDUCE2 -->
<g id="edge1" class="edge">
<title>HEAT-&gt;REDUCE2</title>
<path fill="none" stroke="#0000ff" stroke-width="2" d="M373.1672,-405.5573C288.6501,-403.9044 35.0164,-396.7384 10.6338,-370 -4.2198,-353.7112 -2.5993,-338.0307 10.6338,-320.4 18.859,-309.4415 47.5363,-300.7294 75.2165,-294.6221"/>
<polygon fill="#0000ff" stroke="#0000ff" stroke-width="2" points="76.2665,-297.9777 85.3296,-292.4905 74.8227,-291.1282 76.2665,-297.9777"/>
<text text-anchor="middle" x="47.2819" y="-341" font-family="Times,serif" font-size="14.00" fill="#000000">T &gt;= tTarget</text>
</g>
<!-- COOLOFF -->
<g id="node2" class="node">
<title>COOLOFF</title>
<ellipse fill="none" stroke="#000000" cx="224.3992" cy="-195.6" rx="27" ry="18"/>
<text text-anchor="middle" x="224.3992" y="-191.4" font-family="Times,serif" font-size="14.00" fill="#000000">P1</text>
</g>
<!-- COOLOFF&#45;&gt;HEAT -->
<g id="edge10" class="edge">
<title>COOLOFF-&gt;HEAT</title>
<path fill="none" stroke="#ffa500" d="M250.2966,-200.7251C300.1638,-212.1479 408.5469,-244.876 453.3992,-320.4 464.6556,-339.3539 463.7168,-350.5191 453.3992,-370 448.6853,-378.9005 440.6755,-386.0086 432.2911,-391.4786"/>
<polygon fill="#ffa500" stroke="#ffa500" points="430.4083,-388.525 423.5405,-396.5925 433.9402,-394.5687 430.4083,-388.525"/>
<text text-anchor="middle" x="543.2852" y="-280.2" font-family="Times,serif" font-size="14.00" fill="#000000">A. SUDDEN HEAT and T &lt; tTarget</text>
</g>
<!-- REDUCE1 -->
<g id="node5" class="node">
<title>REDUCE1</title>
<ellipse fill="none" stroke="#000000" cx="461.3992" cy="-106.8" rx="54.4739" ry="18"/>
<text text-anchor="middle" x="461.3992" y="-102.6" font-family="Times,serif" font-size="14.00" fill="#000000">REDUCE1</text>
</g>
<!-- COOLOFF&#45;&gt;REDUCE1 -->
<g id="edge5" class="edge">
<title>COOLOFF-&gt;REDUCE1</title>
<path fill="none" stroke="#0000ff" stroke-width="2" d="M251.5402,-194.4078C322.6434,-191.0081 510.1307,-180.1595 528.3992,-159.6 540.2345,-146.2805 526.1468,-133.8185 507.8882,-124.3499"/>
<polygon fill="#0000ff" stroke="#0000ff" stroke-width="2" points="509.2169,-121.1058 498.6851,-119.9515 506.1984,-127.4215 509.2169,-121.1058"/>
<text text-anchor="middle" x="601.6093" y="-147" font-family="Times,serif" font-size="14.00" fill="#000000">E. T &gt;= tTarget + tDelta</text>
</g>
<!-- COOLOFF&#45;&gt;REDUCE1 -->
<g id="edge6" class="edge">
<title>COOLOFF-&gt;REDUCE1</title>
<path fill="none" stroke="#0000ff" stroke-width="2" d="M198.1501,-191.2067C162.2663,-184.1381 104.8356,-168.3821 127.9276,-142.8 141.0602,-128.2514 283.9139,-126.9093 303.3992,-124.8 335.1951,-121.3581 370.5677,-117.3455 399.7695,-113.9834"/>
<polygon fill="#0000ff" stroke="#0000ff" stroke-width="2" points="400.2923,-117.4464 409.8252,-112.8233 399.49,-110.4925 400.2923,-117.4464"/>
<text text-anchor="middle" x="214.635" y="-147" font-family="Times,serif" font-size="14.00" fill="#000000">F. T &gt;= tTarget and not NEED</text>
</g>
<!-- MAINTAIN -->
<g id="node3" class="node">
<title>MAINTAIN</title>
<ellipse fill="none" stroke="#000000" cx="461.3992" cy="-18" rx="27" ry="18"/>
<text text-anchor="middle" x="461.3992" y="-13.8" font-family="Times,serif" font-size="14.00" fill="#000000">P0</text>
</g>
<!-- MAINTAIN&#45;&gt;HEAT -->
<g id="edge11" class="edge">
<title>MAINTAIN-&gt;HEAT</title>
<path fill="none" stroke="#ffa500" stroke-width="2" d="M488.5158,-20.3222C587.3339,-29.1424 922.3992,-62.3283 922.3992,-106.8 922.3992,-284.4 922.3992,-284.4 922.3992,-284.4 922.3992,-383.9837 557.4936,-402.0496 437.873,-405.2965"/>
<polygon fill="#ffa500" stroke="#ffa500" stroke-width="2" points="437.638,-401.8012 427.7293,-405.5518 437.8142,-408.799 437.638,-401.8012"/>
<text text-anchor="middle" x="1025.2852" y="-191.4" font-family="Times,serif" font-size="14.00" fill="#000000">A. SUDDEN HEAT and T &lt; tTarget</text>
</g>
<!-- MAINTAIN&#45;&gt;COOLOFF -->
<g id="edge12" class="edge">
<title>MAINTAIN-&gt;COOLOFF</title>
<path fill="none" stroke="#ff0000" d="M434.778,-21.6729C385.2883,-29.2167 276.5934,-49.1786 193.3818,-88.8 156.6273,-106.3007 137.8406,-106.5083 119.3992,-142.8 104.2981,-172.5182 151.2345,-185.8093 187.177,-191.5368"/>
<polygon fill="#ff0000" stroke="#ff0000" points="187.031,-195.052 197.4292,-193.0203 188.0336,-188.1242 187.031,-195.052"/>
<text text-anchor="middle" x="295.9079" y="-102.6" font-family="Times,serif" font-size="14.00" fill="#000000">C. not NEED and T &lt; tTarget - hist0</text>
</g>
<!-- REDUCE2&#45;&gt;HEAT -->
<g id="edge3" class="edge">
<title>REDUCE2-&gt;HEAT</title>
<path fill="none" stroke="#ffa500" d="M116.7997,-301.6083C112.2724,-307.1377 108.0091,-313.6046 105.6272,-320.4 98.3353,-341.2035 91.0148,-353.4944 105.6272,-370 122.4569,-389.0101 287.9174,-400.0798 363.3096,-404.1734"/>
<polygon fill="#ffa500" stroke="#ffa500" points="363.1537,-407.6699 373.3251,-404.7048 363.5246,-400.6798 363.1537,-407.6699"/>
<text text-anchor="middle" x="209.2852" y="-341" font-family="Times,serif" font-size="14.00" fill="#000000">A. SUDDEN HEAT and T &lt; tTarget</text>
</g>
<!-- REDUCE2&#45;&gt;HEAT -->
<g id="edge4" class="edge">
<title>REDUCE2-&gt;HEAT</title>
<path fill="none" stroke="#00ff00" d="M186.8498,-289.8011C231.8667,-295.368 292.4028,-305.3683 311.3992,-320.4 330.4407,-335.4673 317.7125,-352.2722 334.3054,-370 343.3738,-379.6887 355.6496,-387.356 367.1605,-393.0808"/>
<polygon fill="#00ff00" stroke="#00ff00" points="366.0175,-396.4085 376.5626,-397.4346 368.9589,-390.0565 366.0175,-396.4085"/>
<text text-anchor="middle" x="393.9461" y="-341" font-family="Times,serif" font-size="14.00" fill="#000000">B. T &lt; tTarget - hist0</text>
</g>
<!-- REDUCE2&#45;&gt;COOLOFF -->
<g id="edge2" class="edge">
<title>REDUCE2-&gt;COOLOFF</title>
<path fill="none" stroke="#0000ff" stroke-width="2" d="M151.7521,-267.2785C166.0625,-253.1589 186.4632,-233.0302 202.0045,-217.6961"/>
<polygon fill="#0000ff" stroke="#0000ff" stroke-width="2" points="204.5354,-220.1158 209.1956,-210.6009 199.619,-215.133 204.5354,-220.1158"/>
<text text-anchor="middle" x="215.0237" y="-235.8" font-family="Times,serif" font-size="14.00" fill="#000000">cycle end</text>
</g>
<!-- REDUCE1&#45;&gt;HEAT -->
<g id="edge8" class="edge">
<title>REDUCE1-&gt;HEAT</title>
<path fill="none" stroke="#ffa500" d="M513.6339,-112.1545C573.0337,-118.7803 663.1622,-130.678 673.3992,-142.8 678.2168,-148.5046 673.9948,-152.1571 673.3992,-159.6 668.2718,-223.6798 690.2594,-251.9651 650.3992,-302.4 597.306,-369.5788 493.0992,-393.6134 437.4672,-401.886"/>
<polygon fill="#ffa500" stroke="#ffa500" points="436.7644,-398.45 427.343,-403.2964 437.7303,-405.3831 436.7644,-398.45"/>
<text text-anchor="middle" x="778.2852" y="-235.8" font-family="Times,serif" font-size="14.00" fill="#000000">A. SUDDEN HEAT and T &lt; tTarget</text>
</g>
<!-- REDUCE1&#45;&gt;COOLOFF -->
<g id="edge9" class="edge">
<title>REDUCE1-&gt;COOLOFF</title>
<path fill="none" stroke="#ff0000" d="M410.6449,-113.6328C382.5604,-118.8647 347.7142,-127.8197 319.3818,-142.8 309.422,-148.0661 309.8019,-153.3936 300.3992,-159.6 287.0645,-168.4019 271.2419,-176.2573 257.4954,-182.3669"/>
<polygon fill="#ff0000" stroke="#ff0000" points="255.7154,-179.3227 247.9179,-186.4956 258.4866,-185.7509 255.7154,-179.3227"/>
<text text-anchor="middle" x="421.9079" y="-147" font-family="Times,serif" font-size="14.00" fill="#000000">C. not NEED and T &lt; tTarget - hist0</text>
</g>
<!-- REDUCE1&#45;&gt;MAINTAIN -->
<g id="edge7" class="edge">
<title>REDUCE1-&gt;MAINTAIN</title>
<path fill="none" stroke="#0000ff" stroke-width="2" d="M461.3992,-88.4006C461.3992,-76.2949 461.3992,-60.2076 461.3992,-46.4674"/>
<polygon fill="#0000ff" stroke="#0000ff" stroke-width="2" points="464.8993,-46.072 461.3992,-36.072 457.8993,-46.0721 464.8993,-46.072"/>
<text text-anchor="middle" x="488.0237" y="-58.2" font-family="Times,serif" font-size="14.00" fill="#000000">cycle end</text>
</g>
<!-- OK -->
<g id="node6" class="node">
<title>OK</title>
<ellipse fill="none" stroke="#000000" cx="1057.3992" cy="-406" rx="27" ry="18"/>
<text text-anchor="middle" x="1057.3992" y="-401.8" font-family="Times,serif" font-size="14.00" fill="#000000">OK</text>
</g>
<!-- HEAT_CWU -->
<g id="node7" class="node">
<title>HEAT_CWU</title>
<ellipse fill="none" stroke="#000000" cx="1072.3992" cy="-284.4" rx="64.2669" ry="18"/>
<text text-anchor="middle" x="1072.3992" y="-280.2" font-family="Times,serif" font-size="14.00" fill="#000000">HEAT_CWU</text>
</g>
<!-- OK&#45;&gt;HEAT_CWU -->
<g id="edge13" class="edge">
<title>OK-&gt;HEAT_CWU</title>
<path fill="none" stroke="#000000" d="M1031.451,-400.3159C1015.2414,-395.2793 995.619,-386.1271 985.6686,-370 974.0933,-351.2392 973.4282,-338.7338 985.6686,-320.4 991.837,-311.161 1000.8664,-304.2898 1010.7968,-299.1804"/>
<polygon fill="#000000" stroke="#000000" points="1012.4448,-302.2765 1020.1136,-294.9662 1009.5598,-295.8986 1012.4448,-302.2765"/>
<text text-anchor="end" x="1110.1298" y="-357.4" font-family="Times,serif" font-size="14.00" fill="#000000">Tcwu &lt; Zcwu - Hcwu</text>
<text text-anchor="middle" x="1048.2645" y="-324.6" font-family="Times,serif" font-size="14.00" fill="#000000">Set Tz for CWU</text>
</g>
<!-- HEAT_CWU&#45;&gt;OK -->
<g id="edge14" class="edge">
<title>HEAT_CWU-&gt;OK</title>
<path fill="none" stroke="#000000" d="M1095.7113,-301.5478C1101.2415,-306.9068 1106.4009,-313.2994 1109.3992,-320.4 1117.9746,-340.7082 1119.6302,-350.4735 1109.3992,-370 1104.871,-378.6424 1097.2212,-385.6226 1089.1624,-391.0531"/>
<polygon fill="#000000" stroke="#000000" points="1087.1436,-388.1833 1080.3857,-396.343 1090.7571,-394.1785 1087.1436,-388.1833"/>
<text text-anchor="end" x="1202.936" y="-357.4" font-family="Times,serif" font-size="14.00" fill="#000000">Tcwu &gt;= Zcwu</text>
<text text-anchor="middle" x="1159.6676" y="-324.6" font-family="Times,serif" font-size="14.00" fill="#000000">Set Tz for CO</text>
</g>
</g>
</svg>